HIERARCHY
ROOT Hips
{
	OFFSET -0.001795 -0.223333 0.028219
	CHANNELS 6 Xposition Yposition Zposition Zrotation Yrotation Xrotation 
	JOINT LeftUpLeg
	{
		OFFSET 0.069520 -0.091406 -0.006815
		CHANNELS 3 Zrotation Yrotation Xrotation
		JOINT LeftLeg
		{
			OFFSET 0.034277 -0.375199 -0.004496
			CHANNELS 3 Zrotation Yrotation Xrotation
			JOINT LeftFoot
			{
				OFFSET -0.013596 -0.397961 -0.043693
				CHANNELS 3 Zrotation Yrotation Xrotation
				JOINT LeftToe
				{
					OFFSET 0.026358 -0.055791 0.119288
					CHANNELS 3 Zrotation Yrotation Xrotation
					End Site
					{
						OFFSET 0.000000 0.000000 0.000000
					}
				}
			}
		}
	}
	JOINT RightUpLeg
	{
		OFFSET -0.067670 -0.090522 -0.004320
		CHANNELS 3 Zrotation Yrotation Xrotation
		JOINT RightLeg
		{
			OFFSET -0.038290 -0.382569 -0.008850
			CHANNELS 3 Zrotation Yrotation Xrotation
			JOINT RightFoot
			{
				OFFSET 0.015774 -0.398415 -0.042312
				CHANNELS 3 Zrotation Yrotation Xrotation
				JOINT RightToe
				{
					OFFSET -0.025372 -0.048144 0.123348
					CHANNELS 3 Zrotation Yrotation Xrotation
					End Site
					{
						OFFSET 0.000000 0.000000 0.000000
					}
				}
			}
		}
	}
	JOINT Spine
	{
		OFFSET -0.002533 0.108963 -0.026696
		CHANNELS 3 Zrotation Yrotation Xrotation
		JOINT Spine1
		{
			OFFSET 0.005487 0.135180 0.001092
			CHANNELS 3 Zrotation Yrotation Xrotation
			JOINT Spine2
			{
				OFFSET 0.001457 0.052922 0.025425
				CHANNELS 3 Zrotation Yrotation Xrotation
				JOINT Neck
				{
					OFFSET -0.002778 0.213870 -0.042857
					CHANNELS 3 Zrotation Yrotation Xrotation
					JOINT Head
					{
						OFFSET 0.005152 0.064970 0.051349
						CHANNELS 3 Zrotation Yrotation Xrotation
						End Site
						{
							OFFSET 0.000000 0.000000 0.000000
						}
					}
				}
				JOINT LeftShoulder
				{
					OFFSET 0.078845 0.121749 -0.034090
					CHANNELS 3 Zrotation Yrotation Xrotation
					JOINT LeftArm
					{
						OFFSET 0.090977 0.030469 -0.008868
						CHANNELS 3 Zrotation Yrotation Xrotation
						JOINT LeftForeArm
						{
							OFFSET 0.259612 -0.012772 -0.027456
							CHANNELS 3 Zrotation Yrotation Xrotation
							JOINT LeftHand
							{
								OFFSET 0.249234 0.008986 -0.001171
								CHANNELS 3 Zrotation Yrotation Xrotation
								End Site
								{
									OFFSET 0.000000 0.000000 0.000000
								}
							}
						}
					}
				}
				JOINT RightShoulder
				{
					OFFSET -0.081759 0.118833 -0.038615
					CHANNELS 3 Zrotation Yrotation Xrotation
					JOINT RightArm
					{
						OFFSET -0.096012 0.032551 -0.009143
						CHANNELS 3 Zrotation Yrotation Xrotation
						JOINT RightForeArm
						{
							OFFSET -0.253742 -0.013329 -0.021401
							CHANNELS 3 Zrotation Yrotation Xrotation
							JOINT RightHand
							{
								OFFSET -0.255298 0.007772 -0.005559
								CHANNELS 3 Zrotation Yrotation Xrotation
								End Site
								{
									OFFSET 0.000000 0.000000 0.000000
								}
							}
						}
					}
				}
			}
		}
	}
}
MOTION
Frames: 7
Frame Time: 0.050000
0.000000 0.946846 0.000000 -1.447056 -9.194847 3.355069 2.116613 0.072199 1.010599 -1.775469 0.282435 -3.209361 2.834017 7.744102 8.807392 0.000000 0.000000 0.000000 -1.714720 0.124875 -0.550397 0.500387 -0.182436 -4.290980 1.931917 -2.260391 11.339960 0.000000 0.000000 0.000000 6.171940 -0.203058 1.103966 -5.231927 1.732000 -22.932394 -0.527297 9.191685 28.681430 8.854667 -4.012013 -19.732328 0.000000 0.000000 0.000000 -6.416754 -1.967965 0.272528 -54.481673 -2.624038 -7.789474 -8.486499 -32.401767 3.994722 0.000000 0.000000 0.000000 13.937642 -8.402069 -4.385447 59.291140 -0.700656 -8.486395 8.848491 29.423060 3.942470 0.000000 0.000000 0.000000 
0.000083 0.946211 0.000567 -1.751579 -10.370642 3.742254 2.342669 0.137331 1.807640 -1.883861 0.333662 -4.945140 3.298466 8.526673 9.133005 0.000000 0.000000 0.000000 -1.708504 0.168440 -1.057391 0.874539 -0.194085 -4.242051 2.456080 -1.369778 11.278384 0.000000 0.000000 0.000000 6.269218 -0.230369 1.314854 -5.448507 1.758364 -23.660316 -0.168471 9.814096 28.442001 9.027911 -4.286586 -18.803160 0.000000 0.000000 0.000000 -5.792419 -1.597145 0.171154 -55.364136 -2.489501 -7.942737 -8.708621 -33.083395 4.190991 0.000000 0.000000 0.000000 13.500057 -8.752094 -4.545823 60.129490 -2.798375 -9.559116 10.007048 31.319515 4.561833 0.000000 0.000000 0.000000 
0.000140 0.946182 0.000815 -1.443642 -9.815542 3.726876 2.317888 0.098035 1.352788 -2.313842 0.357860 -4.311263 3.042433 8.095978 8.993510 0.000000 0.000000 0.000000 -1.852969 0.160623 -0.887268 0.610778 -0.190139 -4.466202 2.174006 -1.809893 11.215780 0.000000 0.000000 0.000000 6.331784 -0.193317 0.903488 -5.597941 1.802655 -23.982413 -0.364007 9.578697 29.007352 9.090184 -4.258280 -19.205170 0.000000 0.000000 0.000000 -6.044046 -2.120033 0.367010 -54.901992 -2.062427 -8.119133 -9.063217 -33.285042 4.311735 0.000000 0.000000 0.000000 13.537849 -8.662829 -4.480413 60.447917 -2.867211 -9.680508 9.533604 31.176102 4.431430 0.000000 0.000000 0.000000 
0.000034 0.946093 0.001107 -1.561301 -10.273642 3.737822 2.509422 0.136716 1.834091 -2.524614 0.391680 -5.007505 3.192558 8.355494 9.181110 0.000000 0.000000 0.000000 -1.879674 0.155391 -0.786964 0.822318 -0.203211 -4.696541 2.421686 -1.439512 11.307707 0.000000 0.000000 0.000000 6.199691 -0.182359 0.828525 -5.431983 1.753487 -24.607990 -0.195054 10.049288 29.586201 8.953920 -4.347530 -18.071595 0.000000 0.000000 0.000000 -5.476456 -1.710871 0.229366 -55.423242 -1.728601 -8.397798 -8.994922 -34.243067 4.440848 0.000000 0.000000 0.000000 13.459055 -9.048727 -4.632892 60.024989 -3.473364 -9.960796 10.041829 31.235928 4.601872 0.000000 0.000000 0.000000 
-0.000133 0.946108 0.001366 -1.519701 -10.230069 3.488358 2.277082 0.151754 1.957932 -2.165417 0.354342 -4.730920 3.203355 8.365275 9.078310 0.000000 0.000000 0.000000 -1.892278 0.140452 -0.596880 0.785395 -0.197486 -4.514081 2.382522 -1.454629 11.201517 0.000000 0.000000 0.000000 5.924773 -0.184329 0.953261 -4.955496 1.641925 -24.203976 -0.287245 10.088588 29.147845 8.591402 -4.127305 -17.704210 0.000000 0.000000 0.000000 -5.571000 -1.575119 0.154706 -55.533452 -1.872119 -8.304511 -9.246973 -34.055369 4.474940 0.000000 0.000000 0.000000 12.608132 -9.232903 -4.623287 60.547069 -3.774121 -10.094420 10.196981 31.480957 4.693064 0.000000 0.000000 0.000000 
-0.000279 0.946321 0.001586 -1.626766 -10.249927 3.486056 2.371795 0.157565 2.046163 -2.118558 0.351741 -4.813551 3.205900 8.377247 9.134541 0.000000 0.000000 0.000000 -1.908177 0.134601 -0.511046 1.030923 -0.209947 -4.605661 2.438343 -1.421427 11.346276 0.000000 0.000000 0.000000 5.824276 -0.190615 1.043175 -4.892740 1.624640 -24.396526 -0.128726 9.910031 29.322997 8.375626 -4.036696 -17.533683 0.000000 0.000000 0.000000 -5.639000 -1.092853 -0.030291 -55.484505 -2.052262 -8.212591 -8.963186 -34.004421 4.404856 0.000000 0.000000 0.000000 12.261222 -9.248619 -4.616511 60.230037 -4.077051 -10.205688 10.414205 31.529900 4.737188 0.000000 0.000000 0.000000 
-0.000430 0.946438 0.001712 -1.578327 -10.289409 3.300067 2.252605 0.179745 2.274030 -1.990207 0.341248 -4.846729 3.209996 8.391307 9.182169 0.000000 0.000000 0.000000 -1.948715 0.121029 -0.310617 1.018777 -0.209353 -4.605316 2.462331 -1.376891 11.340983 0.000000 0.000000 0.000000 5.691398 -0.208819 1.307730 -4.805615 1.604155 -24.297748 -0.200043 9.902491 29.128833 8.460880 -4.059242 -17.742285 0.000000 0.000000 0.000000 -5.921733 -0.958839 -0.106171 -55.437251 -1.784814 -8.306538 -8.808675 -33.995072 4.355362 0.000000 0.000000 0.000000 12.396306 -9.238279 -4.632501 60.074487 -4.362980 -10.309940 10.498075 31.819082 4.805999 0.000000 0.000000 0.000000 
